<svg viewBox="0 0 470 100" xmlns="http://www.w3.org/2000/svg">
  <g transform="translate(50 50)">
    <path d="M0,-50 C 15,-15 15,-15 50,0 C 15,15 15,15 0,50 C -15,15 -15,-15 -50,0 C -15,-15 -15,-15 0,-50 Z" fill="#FF6600" />
    <g stroke="#FFC999" stroke-width="1.5" fill="none" opacity="0.9" stroke-linecap="round">
      <path d="M-25,-30 Q 0 0, 25 30" transform="rotate(20)" />
      <path d="M-30,-25 Q 0 0, 30 25" transform="rotate(-25)" />
      <path d="M-40,17 L 40,-17" transform="rotate(15)" />
      <path d="M-12,35 Q 5 5, 12 -30" />
      <path d="M-35,-12 Q 0 -5, 35 12" />
    </g>
  </g>
  <text x="110" y="70" font-family="Orbitron, sans-serif" font-size="60" font-weight="700" fill="#000000" letter-spacing="-5">
    CF<tspan fill="#FF6600" style="font-style: italic; font-weight: 900;">X </tspan>R
  </text>
</svg>
